<svg width="90" height="80" viewBox="0 0 90 80" fill="none" xmlns="http://www.w3.org/2000/svg">
<circle cx="1.94611" cy="2.409" r="1.94611" fill="#00AE59" fill-opacity="0.69"/>
<circle cx="1.94611" cy="21.2274" r="1.94611" fill="#00AE59" fill-opacity="0.69"/>
<circle cx="1.94611" cy="40.0462" r="1.94611" fill="#00AE59" fill-opacity="0.69"/>
<circle cx="1.94611" cy="58.8646" r="1.94611" fill="#00AE59" fill-opacity="0.69"/>
<circle cx="1.94611" cy="77.6839" r="1.94611" fill="#00AE59" fill-opacity="0.69"/>
<circle cx="30.4959" cy="2.40852" r="1.94611" fill="#00AE59" fill-opacity="0.69"/>
<circle cx="30.4959" cy="21.2279" r="1.94611" fill="#00AE59" fill-opacity="0.69"/>
<circle cx="30.4959" cy="40.0462" r="1.94611" fill="#00AE59" fill-opacity="0.69"/>
<circle cx="30.4959" cy="58.8646" r="1.94611" fill="#00AE59" fill-opacity="0.69"/>
<circle cx="30.4959" cy="77.6839" r="1.94611" fill="#00AE59" fill-opacity="0.69"/>
<circle cx="59.0457" cy="2.40852" r="1.94611" fill="#00AE59" fill-opacity="0.69"/>
<circle cx="59.0457" cy="21.2279" r="1.94611" fill="#00AE59" fill-opacity="0.69"/>
<circle cx="59.0457" cy="40.0462" r="1.94611" fill="#00AE59" fill-opacity="0.69"/>
<circle cx="59.0457" cy="58.8646" r="1.94611" fill="#00AE59" fill-opacity="0.69"/>
<circle cx="59.0457" cy="77.6839" r="1.94611" fill="#00AE59" fill-opacity="0.69"/>
<circle cx="87.5955" cy="2.40852" r="1.94611" fill="#00AE59" fill-opacity="0.69"/>
<circle cx="87.5955" cy="21.2274" r="1.94611" fill="#00AE59" fill-opacity="0.69"/>
<circle cx="87.5955" cy="40.0462" r="1.94611" fill="#00AE59" fill-opacity="0.69"/>
<circle cx="87.5955" cy="58.8646" r="1.94611" fill="#00AE59" fill-opacity="0.69"/>
<circle cx="87.5955" cy="77.6839" r="1.94611" fill="#00AE59" fill-opacity="0.69"/>
</svg>
