<svg width="38" height="38" viewBox="0 0 38 38" fill="none" xmlns="http://www.w3.org/2000/svg">
<path d="M38 19C38 31.6667 31.6667 38 19 38C6.33333 38 0 31.6667 0 19C0 6.33333 6.33333 0 19 0C31.6667 0 38 6.33333 38 19Z" fill="#3267E3"/>
<path d="M12.97 21.71H10.32L9.88 23H8.08L10.67 15.98H12.64L15.23 23H13.41L12.97 21.71ZM12.53 20.41L11.65 17.81L10.76 20.41H12.53ZM22.2547 19.45C22.2547 20.1433 22.1047 20.76 21.8047 21.3C21.5114 21.8333 21.0847 22.25 20.5247 22.55C19.9714 22.85 19.318 23 18.5647 23H15.8947V15.93H18.5647C19.3247 15.93 19.9814 16.0767 20.5347 16.37C21.088 16.6633 21.5114 17.0767 21.8047 17.61C22.1047 18.1433 22.2547 18.7567 22.2547 19.45ZM18.4147 21.47C19.0814 21.47 19.598 21.2933 19.9647 20.94C20.338 20.5867 20.5247 20.09 20.5247 19.45C20.5247 18.81 20.338 18.3133 19.9647 17.96C19.598 17.6067 19.0814 17.43 18.4147 17.43H17.6047V21.47H18.4147ZM26.5887 15.82C27.2553 15.82 27.8587 15.9767 28.3987 16.29C28.9453 16.5967 29.3753 17.0267 29.6887 17.58C30.002 18.1267 30.1587 18.7467 30.1587 19.44C30.1587 20.1333 29.9987 20.7567 29.6787 21.31C29.3653 21.8633 28.9353 22.2967 28.3887 22.61C27.8487 22.9167 27.2487 23.07 26.5887 23.07C25.9287 23.07 25.3253 22.9167 24.7787 22.61C24.2387 22.2967 23.8087 21.8633 23.4887 21.31C23.1753 20.7567 23.0187 20.1333 23.0187 19.44C23.0187 18.7467 23.1753 18.1267 23.4887 17.58C23.8087 17.0267 24.2387 16.5967 24.7787 16.29C25.3253 15.9767 25.9287 15.82 26.5887 15.82ZM26.5887 17.41C26.0287 17.41 25.582 17.5933 25.2487 17.96C24.922 18.32 24.7587 18.8133 24.7587 19.44C24.7587 20.06 24.922 20.5533 25.2487 20.92C25.582 21.2867 26.0287 21.47 26.5887 21.47C27.142 21.47 27.5853 21.2867 27.9187 20.92C28.252 20.5533 28.4187 20.06 28.4187 19.44C28.4187 18.82 28.252 18.3267 27.9187 17.96C27.592 17.5933 27.1487 17.41 26.5887 17.41Z" fill="white"/>
</svg>
