<svg width="24" height="63" viewBox="0 0 24 63" fill="none" xmlns="http://www.w3.org/2000/svg">
<path d="M10.9393 62.0607C11.5251 62.6464 12.4749 62.6464 13.0607 62.0607L22.6066 52.5147C23.1924 51.9289 23.1924 50.9792 22.6066 50.3934C22.0208 49.8076 21.0711 49.8076 20.4853 50.3934L12 58.8787L3.51472 50.3934C2.92893 49.8076 1.97918 49.8076 1.3934 50.3934C0.807611 50.9792 0.807611 51.9289 1.3934 52.5147L10.9393 62.0607ZM13.5 2C13.5 1.17157 12.8284 0.5 12 0.5C11.1716 0.5 10.5 1.17157 10.5 2L13.5 2ZM13.5 53.6177C13.5 52.7893 12.8284 52.1177 12 52.1177C11.1716 52.1177 10.5 52.7893 10.5 53.6177L13.5 53.6177ZM10.5 38.8719C10.5 39.7003 11.1716 40.3719 12 40.3719C12.8284 40.3719 13.5 39.7003 13.5 38.8719L10.5 38.8719ZM13.5 24.1281C13.5 23.2997 12.8284 22.6281 12 22.6281C11.1716 22.6281 10.5 23.2997 10.5 24.1281L13.5 24.1281ZM10.5 9.3823C10.5 10.2107 11.1716 10.8823 12 10.8823C12.8284 10.8823 13.5 10.2107 13.5 9.3823L10.5 9.3823ZM13.5 61C13.5 58.3445 13.5 55.8976 13.5 53.6177L10.5 53.6177C10.5 55.8976 10.5 58.3445 10.5 61L13.5 61ZM13.5 38.8719C13.5 33.7243 13.5 29.2757 13.5 24.1281L10.5 24.1281C10.5 29.1959 10.5 33.8041 10.5 38.8719L13.5 38.8719ZM13.5 9.3823C13.5 7.10242 13.5 4.65549 13.5 2L10.5 2C10.5 4.65549 10.5 7.10242 10.5 9.3823L13.5 9.3823Z" fill="#00AE59"/>
</svg>
