<svg width="38" height="38" viewBox="0 0 38 38" fill="none" xmlns="http://www.w3.org/2000/svg">
<path d="M38 19C38 31.6667 31.6667 38 19 38C6.33333 38 0 31.6667 0 19C0 6.33333 6.33333 0 19 0C31.6667 0 38 6.33333 38 19Z" fill="#3267E3"/>
<path d="M10.4916 15.29V17H8.72164V15.29H10.4916ZM17.6649 17H15.9549L13.0949 12.66V17H11.3849V9.93H13.0949L15.9549 14.31V9.93H17.6649V17ZM24.1459 14.06C24.1459 14.2 24.1292 14.3533 24.0959 14.52H20.2259C20.2459 14.94 20.3525 15.2433 20.5459 15.43C20.7392 15.61 20.9859 15.7 21.2859 15.7C21.5392 15.7 21.7492 15.6367 21.9159 15.51C22.0825 15.3833 22.1925 15.22 22.2459 15.02H24.0559C23.9825 15.4133 23.8225 15.7667 23.5759 16.08C23.3292 16.3867 23.0159 16.63 22.6359 16.81C22.2559 16.9833 21.8325 17.07 21.3659 17.07C20.8192 17.07 20.3325 16.9567 19.9059 16.73C19.4859 16.4967 19.1559 16.1633 18.9159 15.73C18.6759 15.2967 18.5559 14.79 18.5559 14.21C18.5559 13.6233 18.6725 13.1167 18.9059 12.69C19.1459 12.2567 19.4792 11.9267 19.9059 11.7C20.3325 11.4667 20.8192 11.35 21.3659 11.35C21.9192 11.35 22.4059 11.4633 22.8259 11.69C23.2459 11.9167 23.5692 12.2367 23.7959 12.65C24.0292 13.0567 24.1459 13.5267 24.1459 14.06ZM22.4159 13.8C22.4225 13.4333 22.3225 13.16 22.1159 12.98C21.9159 12.7933 21.6659 12.7 21.3659 12.7C21.0525 12.7 20.7925 12.7933 20.5859 12.98C20.3792 13.1667 20.2625 13.44 20.2359 13.8H22.4159ZM28.1973 15.53V17H27.4273C26.7739 17 26.2639 16.84 25.8973 16.52C25.5373 16.1933 25.3573 15.6567 25.3573 14.91V12.86H24.6073V11.42H25.3573V10.05H27.0673V11.42H28.1873V12.86H27.0673V14.94C27.0673 15.16 27.1106 15.3133 27.1973 15.4C27.2906 15.4867 27.4439 15.53 27.6573 15.53H28.1973ZM10.0739 19.86C10.9739 19.86 11.7172 20.0967 12.3039 20.57C12.8972 21.0433 13.2806 21.6833 13.4539 22.49H11.6439C11.5106 22.1633 11.3039 21.9067 11.0239 21.72C10.7506 21.5333 10.4239 21.44 10.0439 21.44C9.54391 21.44 9.14057 21.6233 8.83391 21.99C8.52724 22.3567 8.37391 22.8467 8.37391 23.46C8.37391 24.0733 8.52724 24.5633 8.83391 24.93C9.14057 25.29 9.54391 25.47 10.0439 25.47C10.4239 25.47 10.7506 25.3767 11.0239 25.19C11.3039 25.0033 11.5106 24.75 11.6439 24.43H13.4539C13.2806 25.23 12.8972 25.87 12.3039 26.35C11.7172 26.8233 10.9739 27.06 10.0739 27.06C9.38724 27.06 8.78391 26.91 8.26391 26.61C7.74391 26.3033 7.34057 25.8767 7.05391 25.33C6.77391 24.7833 6.63391 24.16 6.63391 23.46C6.63391 22.76 6.77391 22.1367 7.05391 21.59C7.34057 21.0433 7.74391 20.62 8.26391 20.32C8.78391 20.0133 9.38724 19.86 10.0739 19.86ZM17.0223 21.35C17.5756 21.35 18.0689 21.4667 18.5023 21.7C18.9423 21.9267 19.2856 22.2567 19.5323 22.69C19.7856 23.1233 19.9123 23.63 19.9123 24.21C19.9123 24.79 19.7856 25.2967 19.5323 25.73C19.2856 26.1633 18.9423 26.4967 18.5023 26.73C18.0689 26.9567 17.5756 27.07 17.0223 27.07C16.4689 27.07 15.9723 26.9567 15.5323 26.73C15.0923 26.4967 14.7456 26.1633 14.4923 25.73C14.2456 25.2967 14.1223 24.79 14.1223 24.21C14.1223 23.63 14.2456 23.1233 14.4923 22.69C14.7456 22.2567 15.0923 21.9267 15.5323 21.7C15.9723 21.4667 16.4689 21.35 17.0223 21.35ZM17.0223 22.83C16.6956 22.83 16.4189 22.95 16.1923 23.19C15.9723 23.4233 15.8623 23.7633 15.8623 24.21C15.8623 24.6567 15.9723 24.9967 16.1923 25.23C16.4189 25.4633 16.6956 25.58 17.0223 25.58C17.3489 25.58 17.6223 25.4633 17.8423 25.23C18.0623 24.9967 18.1723 24.6567 18.1723 24.21C18.1723 23.7633 18.0623 23.4233 17.8423 23.19C17.6223 22.95 17.3489 22.83 17.0223 22.83ZM22.509 22.47C22.7223 22.13 22.9957 21.86 23.329 21.66C23.669 21.46 24.0357 21.36 24.429 21.36V23.19H23.939C23.4857 23.19 23.1323 23.2867 22.879 23.48C22.6323 23.6733 22.509 24 22.509 24.46V27H20.799V21.42H22.509V22.47ZM30.4447 24.06C30.4447 24.2 30.428 24.3533 30.3947 24.52H26.5247C26.5447 24.94 26.6514 25.2433 26.8447 25.43C27.038 25.61 27.2847 25.7 27.5847 25.7C27.838 25.7 28.048 25.6367 28.2147 25.51C28.3814 25.3833 28.4914 25.22 28.5447 25.02H30.3547C30.2814 25.4133 30.1214 25.7667 29.8747 26.08C29.628 26.3867 29.3147 26.63 28.9347 26.81C28.5547 26.9833 28.1314 27.07 27.6647 27.07C27.118 27.07 26.6314 26.9567 26.2047 26.73C25.7847 26.4967 25.4547 26.1633 25.2147 25.73C24.9747 25.2967 24.8547 24.79 24.8547 24.21C24.8547 23.6233 24.9714 23.1167 25.2047 22.69C25.4447 22.2567 25.778 21.9267 26.2047 21.7C26.6314 21.4667 27.118 21.35 27.6647 21.35C28.218 21.35 28.7047 21.4633 29.1247 21.69C29.5447 21.9167 29.868 22.2367 30.0947 22.65C30.328 23.0567 30.4447 23.5267 30.4447 24.06ZM28.7147 23.8C28.7214 23.4333 28.6214 23.16 28.4147 22.98C28.2147 22.7933 27.9647 22.7 27.6647 22.7C27.3514 22.7 27.0914 22.7933 26.8847 22.98C26.678 23.1667 26.5614 23.44 26.5347 23.8H28.7147Z" fill="white"/>
</svg>
