<svg width="38" height="38" viewBox="0 0 38 38" fill="none" xmlns="http://www.w3.org/2000/svg">
<path d="M38 19C38 31.6667 31.6667 38 19 38C6.33333 38 0 31.6667 0 19C0 6.33333 6.33333 0 19 0C31.6667 0 38 6.33333 38 19Z" fill="#3267E3"/>
<path fill-rule="evenodd" clip-rule="evenodd" d="M12.0987 11.3389C10.8933 12.5459 10.8933 14.4857 10.8933 18.3669C10.8933 22.2481 10.8933 24.1887 12.0987 25.394C13.3057 26.6002 15.2455 26.6002 19.1266 26.6002C23.0078 26.6002 24.9484 26.6002 26.1538 25.394C27.36 24.1895 27.36 22.2481 27.36 18.3669C27.36 14.4857 27.36 12.5451 26.1538 11.3389C24.9493 10.1335 23.0078 10.1335 19.1266 10.1335C15.2455 10.1335 13.3049 10.1335 12.0987 11.3389ZM14.5357 16.325C14.6406 16.1993 14.7911 16.1203 14.9541 16.1055C15.1171 16.0907 15.2794 16.1412 15.4052 16.246L15.6332 16.4353C16.1314 16.8503 16.5554 17.2035 16.8485 17.5287C17.1605 17.8745 17.4034 18.2705 17.4034 18.7785C17.4034 19.2865 17.1605 19.6834 16.8485 20.0284C16.5554 20.3536 16.1314 20.7068 15.6332 21.1218L15.4052 21.3111C15.3432 21.3653 15.271 21.4066 15.1929 21.4325C15.1147 21.4584 15.0322 21.4684 14.9501 21.462C14.868 21.4555 14.788 21.4327 14.7149 21.3948C14.6418 21.357 14.5769 21.3049 14.5242 21.2417C14.4715 21.1784 14.432 21.1053 14.408 21.0265C14.3839 20.9478 14.3759 20.865 14.3843 20.7831C14.3928 20.7012 14.4175 20.6218 14.4571 20.5496C14.4967 20.4774 14.5503 20.4138 14.6148 20.3626L14.8074 20.2021C15.35 19.7493 15.7049 19.4529 15.9321 19.2009C16.1478 18.9621 16.1684 18.8494 16.1684 18.7785C16.1684 18.7077 16.1478 18.5958 15.9321 18.3562C15.704 18.1042 15.35 17.807 14.8074 17.355L14.6148 17.1945C14.489 17.0896 14.4101 16.9391 14.3953 16.7761C14.3804 16.6131 14.431 16.4508 14.5357 16.325ZM23.8608 20.8369C23.8608 21.0006 23.7958 21.1577 23.6799 21.2735C23.5641 21.3893 23.4071 21.4544 23.2433 21.4544H19.1266C18.9629 21.4544 18.8058 21.3893 18.69 21.2735C18.5742 21.1577 18.5091 21.0006 18.5091 20.8369C18.5091 20.6731 18.5742 20.516 18.69 20.4002C18.8058 20.2844 18.9629 20.2194 19.1266 20.2194H23.2433C23.4071 20.2194 23.5641 20.2844 23.6799 20.4002C23.7958 20.516 23.8608 20.6731 23.8608 20.8369Z" fill="white"/>
</svg>
