<svg width="38" height="38" viewBox="0 0 38 38" fill="none" xmlns="http://www.w3.org/2000/svg">
<path d="M38 19C38 31.6667 31.6667 38 19 38C6.33333 38 0 31.6667 0 19C0 6.33333 6.33333 0 19 0C31.6667 0 38 6.33333 38 19Z" fill="#3267E3"/>
<mask id="path-2-inside-1_90_53" fill="white">
<path d="M25.0051 12.9948C25.5546 12.4453 25.5596 11.5449 24.9378 11.0788C23.7576 10.1941 22.3896 9.58057 20.9313 9.29051C19.011 8.90853 17.0205 9.10458 15.2116 9.85385C13.4027 10.6031 11.8566 11.872 10.7688 13.5C9.68103 15.1279 9.10043 17.0419 9.10043 18.9999C9.10043 20.9578 9.68103 22.8718 10.7688 24.4998C11.8566 26.1277 13.4027 27.3966 15.2116 28.1459C17.0205 28.8951 19.011 29.0912 20.9313 28.7092C22.3896 28.4191 23.7576 27.8057 24.9378 26.921C25.5596 26.4548 25.5546 25.5545 25.0051 25.005V25.005C24.4556 24.4555 23.5703 24.4697 22.9232 24.9C22.1566 25.4097 21.2941 25.7678 20.3823 25.9491C19.0079 26.2225 17.5832 26.0822 16.2885 25.5459C14.9938 25.0096 13.8873 24.1015 13.1087 22.9363C12.3301 21.7711 11.9146 20.4012 11.9146 18.9999C11.9146 17.5985 12.3301 16.2286 13.1087 15.0634C13.8873 13.8982 14.9938 12.9901 16.2885 12.4538C17.5832 11.9175 19.0079 11.7772 20.3823 12.0506C21.2941 12.232 22.1566 12.59 22.9232 13.0997C23.5703 13.53 24.4556 13.5443 25.0051 12.9948V12.9948Z"/>
</mask>
<path d="M25.0051 12.9948C25.5546 12.4453 25.5596 11.5449 24.9378 11.0788C23.7576 10.1941 22.3896 9.58057 20.9313 9.29051C19.011 8.90853 17.0205 9.10458 15.2116 9.85385C13.4027 10.6031 11.8566 11.872 10.7688 13.5C9.68103 15.1279 9.10043 17.0419 9.10043 18.9999C9.10043 20.9578 9.68103 22.8718 10.7688 24.4998C11.8566 26.1277 13.4027 27.3966 15.2116 28.1459C17.0205 28.8951 19.011 29.0912 20.9313 28.7092C22.3896 28.4191 23.7576 27.8057 24.9378 26.921C25.5596 26.4548 25.5546 25.5545 25.0051 25.005V25.005C24.4556 24.4555 23.5703 24.4697 22.9232 24.9C22.1566 25.4097 21.2941 25.7678 20.3823 25.9491C19.0079 26.2225 17.5832 26.0822 16.2885 25.5459C14.9938 25.0096 13.8873 24.1015 13.1087 22.9363C12.3301 21.7711 11.9146 20.4012 11.9146 18.9999C11.9146 17.5985 12.3301 16.2286 13.1087 15.0634C13.8873 13.8982 14.9938 12.9901 16.2885 12.4538C17.5832 11.9175 19.0079 11.7772 20.3823 12.0506C21.2941 12.232 22.1566 12.59 22.9232 13.0997C23.5703 13.53 24.4556 13.5443 25.0051 12.9948V12.9948Z" fill="white" stroke="black" stroke-width="150" stroke-linejoin="round" mask="url(#path-2-inside-1_90_53)"/>
<path d="M23 19C23 21.2091 21.2091 23 19 23C16.7909 23 15 21.2091 15 19C15 16.7909 16.7909 15 19 15C21.2091 15 23 16.7909 23 19Z" fill="white"/>
</svg>
