<svg width="40" height="40" viewBox="0 0 40 40" fill="none" xmlns="http://www.w3.org/2000/svg">
<path d="M9.56563 30.8279C9.2375 30.7623 8.975 30.6967 8.64688 30.5654C8.31875 30.4342 8.05625 30.3686 7.79375 30.2373C7.20313 29.9748 6.67813 29.6467 6.15313 29.2529C5.10313 28.5311 4.25 27.5467 3.59375 26.3654C2.9375 25.2498 2.54375 23.9373 2.47813 22.6904C2.4125 22.0342 2.47813 21.4436 2.54375 20.7873C2.60938 20.4592 2.675 20.1967 2.74063 19.8686C2.80625 19.5404 2.9375 19.2779 3.00313 18.9498L3.06875 19.8686C3.06875 20.1967 3.13438 20.4592 3.2 20.7873C3.26563 21.3779 3.39688 21.9686 3.52813 22.4936C3.79063 23.6092 4.18438 24.6592 4.775 25.6436C5.36563 26.6279 6.02188 27.5467 6.875 28.3998C7.26875 28.7936 7.72813 29.1873 8.1875 29.5811C8.38438 29.7779 8.64688 29.9748 8.90938 30.1717L9.56563 30.8279ZM9.36875 33.1904C9.17188 33.3217 8.90938 33.3873 8.64688 33.4529C8.38438 33.5186 8.1875 33.5842 7.925 33.5842C7.46563 33.6498 6.94063 33.7154 6.41563 33.6498C5.43125 33.5842 4.38125 33.3217 3.52813 32.8623C2.60938 32.4029 1.82188 31.6811 1.29688 30.8279C1.03438 30.4342 0.771875 29.9748 0.575 29.5154C0.509375 29.3186 0.44375 29.0561 0.378125 28.7936C0.378125 28.5967 0.3125 28.3998 0.3125 28.1373C0.509375 28.3342 0.640625 28.5311 0.771875 28.6623C0.96875 28.8592 1.1 29.0561 1.23125 29.1873C1.55938 29.5154 1.82188 29.8436 2.15 30.1061C2.80625 30.6967 3.4625 31.2217 4.25 31.6154C4.97188 32.0092 5.825 32.3373 6.6125 32.5998C7.00625 32.7311 7.46563 32.7967 7.925 32.9279C8.12188 32.9936 8.38438 32.9936 8.58125 33.0592C8.90938 33.1248 9.10625 33.1248 9.36875 33.1904ZM24.2 1.29668C24.5281 1.3623 24.7906 1.49355 25.1188 1.6248C25.4469 1.75605 25.7094 1.8873 25.9719 2.01855C26.5625 2.34668 27.0875 2.6748 27.6125 3.06855C28.6625 3.85605 29.5156 4.90605 30.1063 6.08731C30.6969 7.26855 31.025 8.58105 31.025 9.82793C31.025 10.4842 30.9594 11.0748 30.8281 11.7311C30.7625 12.0592 30.6969 12.3217 30.5656 12.6498C30.4344 12.9779 30.3688 13.2404 30.2375 13.5029L30.1719 12.5842C30.1719 12.2561 30.1719 11.9936 30.1063 11.6654L29.9094 9.89355C29.7125 8.77793 29.3188 7.6623 28.7938 6.6123C28.2688 5.5623 27.6125 4.64355 26.825 3.79043C26.4313 3.33105 25.9719 2.9373 25.5781 2.47793C25.3813 2.28105 25.1188 2.08418 24.8563 1.8873L24.2 1.29668ZM29.9094 1.03418C30.1719 1.0998 30.3688 1.16543 30.5656 1.29668C30.7625 1.3623 31.025 1.49355 31.2219 1.6248C31.6156 1.8873 32.0094 2.1498 32.4031 2.47793C33.125 3.13418 33.7156 3.92168 34.0438 4.84043C34.4375 5.75918 34.5688 6.74356 34.4375 7.72793C34.3719 8.1873 34.2406 8.64668 34.1094 9.10605C34.0438 9.30293 33.9125 9.56543 33.8469 9.7623C33.7156 9.95918 33.65 10.1561 33.4531 10.3529V9.04043C33.4531 8.58106 33.3875 8.1873 33.3875 7.79355C33.2563 6.94043 33.125 6.15293 32.7969 5.43106C32.4688 4.64355 32.075 3.9873 31.6156 3.26543C31.3531 2.9373 31.0906 2.54355 30.8281 2.21543C30.6969 2.01855 30.5656 1.8873 30.3688 1.69043C30.2375 1.3623 30.0406 1.16543 29.9094 1.03418Z" fill="#42ADE2"/>
<path d="M5.56242 10.8125C4.24992 11.4031 3.79055 12.9781 4.38117 14.2906L12.6499 31.55L17.2437 29.3844L8.97492 12.0594C8.3843 10.7469 6.87492 10.1562 5.56242 10.8125ZM27.2843 24.5281L32.1406 22.2312L22.6905 2.54373C22.0343 1.23123 20.4593 0.640604 19.0812 1.29685C17.7687 1.9531 17.178 3.5281 17.8343 4.90623L27.2843 24.5281Z" fill="#FFDD67"/>
<path d="M19.1469 1.23147C19.0157 1.2971 18.8844 1.36272 18.7532 1.49397C20 1.16585 21.3125 1.75647 21.9032 2.93772L31.3532 22.6252L32.2063 22.2315L22.7563 2.54397C22.1 1.16585 20.525 0.575222 19.1469 1.23147Z" fill="#EBA352"/>
<path d="M17.2438 29.3185L22.297 26.8904L12.6501 6.80913C11.9938 5.43101 10.2876 4.77476 8.90945 5.43101C7.53133 6.08726 6.9407 7.79351 7.59695 9.17163L17.2438 29.3185Z" fill="#FFDD67"/>
<path d="M8.90938 5.49669C8.77813 5.56232 8.64688 5.62794 8.51562 5.75919C9.7625 5.43107 11.2063 6.02169 11.7969 7.26857L17.7688 19.8029L19.2125 20.6561L12.65 6.87482C11.9937 5.43107 10.3531 4.84044 8.90938 5.49669Z" fill="#EBA352"/>
<path d="M21.5094 25.3158L26.5626 22.8877L16.9157 2.80641C16.2594 1.42829 14.5532 0.772038 13.1751 1.49391C11.797 2.15016 11.2063 3.85641 11.8626 5.23454L21.5094 25.3158Z" fill="#FFDD67"/>
<path d="M13.175 1.42833C13.0437 1.49396 12.9125 1.62521 12.7812 1.69083C14.0281 1.36271 15.4718 1.95333 16.0625 3.20021L22.8218 17.3752L24.2656 18.2283L16.9156 2.80646C16.2593 1.36271 14.5531 0.772081 13.175 1.42833ZM5.56245 10.8127C5.4312 10.8783 5.29995 10.944 5.1687 11.0752C6.34995 10.7471 7.59683 11.3377 8.12183 12.519L13.0437 22.8221L14.4875 23.6752L8.97495 12.1252C8.38433 10.7471 6.87495 10.1565 5.56245 10.8127Z" fill="#EBA352"/>
<path d="M38.8999 8.84392C37.1281 7.46579 34.2406 8.97517 32.7968 13.7002C31.8124 16.9814 31.6812 17.9658 29.5812 18.9502L28.3999 16.522C28.3999 16.522 9.76243 25.5127 10.4843 26.9564C10.4843 26.9564 12.7156 33.9127 16.5218 37.1283C22.1656 41.9845 35.3562 36.8002 35.9468 24.2658C36.2749 16.9814 40.8031 10.3533 38.8999 8.84392Z" fill="#FFDD67"/>
<path d="M38.8999 8.84365C38.5718 8.58115 38.1781 8.4499 37.7843 8.38428C37.8499 8.4499 37.9812 8.4499 38.0468 8.51553C40.0156 10.0249 37.9812 13.503 36.8656 16.653C35.9468 19.1468 35.1593 21.7062 35.2906 24.1999C35.8156 35.0937 24.8562 40.278 18.2937 38.3093C24.725 40.9999 36.6687 35.8812 36.1437 24.528C36.0124 22.0343 36.7343 19.6062 37.7187 16.9812C38.7687 13.8312 40.8031 10.353 38.8999 8.84365Z" fill="#EBA352"/>
<path d="M30.1718 18.6875C26.1031 19.1469 20.1312 24.9875 24.3312 31.3531C21.2468 24.9219 26.2999 20.5906 29.5156 19.0813C29.8437 18.8188 30.1718 18.6875 30.1718 18.6875Z" fill="#EBA352"/>
</svg>
