<svg width="18" height="17" viewBox="0 0 18 17" fill="none" xmlns="http://www.w3.org/2000/svg">
<path d="M6.96978 0.787842H3.81826V2.3636H2.24251V3.93936H0.666748V8.66663H2.24251V10.2424H3.81826V11.8181H5.39402V13.3939H6.96978V14.9697H8.54554V16.5454H10.1213V14.9697H11.6971V13.3939H13.2728V11.8181H14.8486V10.2424H16.4243V8.66663H18.0001V3.93936H16.4243V2.3636H14.8486V0.787842H11.6971V2.3636H10.1213V3.93936H8.54554V2.3636H6.96978V0.787842ZM6.96978 2.3636V3.93936H8.54554V5.51511H10.1213V3.93936H11.6971V2.3636H14.8486V3.93936H16.4243V8.66663H14.8486V10.2424H13.2728V11.8181H11.6971V13.3939H10.1213V14.9697H8.54554V13.3939H6.96978V11.8181H5.39402V10.2424H3.81826V8.66663H2.24251V3.93936H3.81826V2.3636H6.96978Z" fill="#00AE59"/>
</svg>
