<svg width="46" height="46" viewBox="0 0 46 46" fill="none" xmlns="http://www.w3.org/2000/svg">
<rect x="0.538452" width="45.4615" height="45.4615" rx="22.7308" fill="#3267E3"/>
<path d="M32.6453 23.1939V30.3945H28.7164V23.676C28.7164 21.9878 28.1479 20.8363 26.7262 20.8363C25.6406 20.8363 24.994 21.6131 24.7102 22.3635C24.6065 22.6318 24.5798 23.0056 24.5798 23.3813V30.3945H20.649C20.649 30.3945 20.7023 19.0164 20.649 17.8367H24.5798V19.6166L24.5541 19.6575H24.5798V19.6166C25.1015 18.7627 26.0337 17.542 28.1212 17.542C30.7066 17.542 32.6453 19.3375 32.6453 23.1939ZM16.5382 11.7837C15.1945 11.7837 14.3147 12.7205 14.3147 13.9529C14.3147 15.1581 15.1688 16.1231 16.4867 16.1231H16.5125C17.8837 16.1231 18.735 15.1581 18.735 13.9529C18.7111 12.7205 17.8837 11.7837 16.5382 11.7837ZM14.548 30.3945H18.477V17.8367H14.548V30.3945Z" fill="white"/>
</svg>
