<svg width="15" height="18" viewBox="0 0 15 18" fill="none" xmlns="http://www.w3.org/2000/svg">
<path d="M7.5 0.387695C9.48912 0.387695 11.3968 1.17787 12.8033 2.58439C14.2098 3.99092 15 5.89857 15 7.8877C15 10.9927 12.6333 14.246 8 17.721C7.85575 17.8292 7.68031 17.8877 7.5 17.8877C7.31969 17.8877 7.14425 17.8292 7 17.721C2.36667 14.246 0 10.9927 0 7.8877C0 5.89857 0.790176 3.99092 2.1967 2.58439C3.60322 1.17787 5.51088 0.387695 7.5 0.387695ZM7.5 5.3877C6.83696 5.3877 6.20107 5.65109 5.73223 6.11993C5.26339 6.58877 5 7.22465 5 7.8877C5 8.55074 5.26339 9.18662 5.73223 9.65546C6.20107 10.1243 6.83696 10.3877 7.5 10.3877C8.16304 10.3877 8.79893 10.1243 9.26777 9.65546C9.73661 9.18662 10 8.55074 10 7.8877C10 7.22465 9.73661 6.58877 9.26777 6.11993C8.79893 5.65109 8.16304 5.3877 7.5 5.3877Z" fill="#00AE59"/>
</svg>
