<svg width="38" height="38" viewBox="0 0 38 38" fill="none" xmlns="http://www.w3.org/2000/svg">
<path d="M38 19C38 31.6667 31.6667 38 19 38C6.33333 38 0 31.6667 0 19C0 6.33333 6.33333 0 19 0C31.6667 0 38 6.33333 38 19Z" fill="#3267E3"/>
<path d="M18.8371 11.3999C14.4281 11.3999 10.8571 12.987 10.8571 14.9466C10.8571 16.9061 14.4281 18.4932 18.8371 18.4932C23.246 18.4932 26.8171 16.9061 26.8171 14.9466C26.8171 12.987 23.246 11.3999 18.8371 11.3999ZM10.8571 16.7199V19.3799C10.8571 21.3394 14.4281 22.9266 18.8371 22.9266C23.246 22.9266 26.8171 21.3394 26.8171 19.3799V16.7199C26.8171 18.6794 23.246 20.2666 18.8371 20.2666C14.4281 20.2666 10.8571 18.6794 10.8571 16.7199ZM10.8571 21.1532V23.8132C10.8571 25.7728 14.4281 27.3599 18.8371 27.3599C23.246 27.3599 26.8171 25.7728 26.8171 23.8132V21.1532C26.8171 23.1128 23.246 24.6999 18.8371 24.6999C14.4281 24.6999 10.8571 23.1128 10.8571 21.1532Z" fill="white"/>
</svg>
