<svg width="47" height="46" viewBox="0 0 47 46" fill="none" xmlns="http://www.w3.org/2000/svg">
<rect x="0.769287" width="45.4615" height="45.4615" rx="22.7308" fill="#3267E3"/>
<g clip-path="url(#clip0_90_60)">
<path d="M32.4449 14.5779C32.4646 14.4596 32.453 14.3382 32.4114 14.2257C32.3697 14.1132 32.2994 14.0136 32.2074 13.9366C32.1154 13.8597 32.005 13.8081 31.8869 13.7869C31.7688 13.7658 31.6473 13.7758 31.5343 13.8161L12.2476 20.7042C12.1205 20.7495 12.0095 20.8312 11.9284 20.9391C11.8473 21.047 11.7997 21.1763 11.7914 21.311C11.7832 21.4457 11.8148 21.5799 11.8821 21.6969C11.9495 21.8138 12.0498 21.9084 12.1705 21.9688L17.681 24.7241C17.7896 24.7784 17.9106 24.8031 18.0318 24.7956C18.153 24.7881 18.2701 24.7487 18.3711 24.6814L22.9449 21.6313L20.2075 25.0561C20.1479 25.1306 20.1045 25.2167 20.08 25.3089C20.0554 25.4011 20.0503 25.4975 20.065 25.5917C20.0796 25.686 20.1137 25.7763 20.165 25.8567C20.2163 25.9371 20.2838 26.006 20.3632 26.059L28.6289 31.5695C28.7246 31.6331 28.8348 31.6718 28.9492 31.682C29.0637 31.6922 29.179 31.6735 29.2844 31.6278C29.3898 31.5821 29.4822 31.5107 29.553 31.4201C29.6238 31.3295 29.6708 31.2227 29.6897 31.1094L32.4449 14.5779Z" fill="white"/>
</g>
<defs>
<clipPath id="clip0_90_60">
<rect width="20.6643" height="20.6643" fill="white" transform="translate(11.7903 12.3984)"/>
</clipPath>
</defs>
</svg>
