<svg width="46" height="46" viewBox="0 0 46 46" fill="none" xmlns="http://www.w3.org/2000/svg">
<rect width="45.4615" height="45.4615" rx="22.7308" fill="#3267E3"/>
<path d="M23.001 12C28.524 12 33.001 16.477 33.001 22C33.001 27.523 28.524 32 23.001 32C21.2338 32.0029 19.4976 31.5352 17.971 30.645L13.005 32L14.357 27.032C13.4661 25.5049 12.998 23.768 13.001 22C13.001 16.477 17.478 12 23.001 12ZM19.593 17.3L19.393 17.308C19.2635 17.3159 19.137 17.3499 19.021 17.408C18.9125 17.4694 18.8135 17.5462 18.727 17.636C18.607 17.749 18.539 17.847 18.466 17.942C18.0961 18.4229 17.897 19.0133 17.9 19.62C17.902 20.11 18.03 20.587 18.23 21.033C18.639 21.935 19.312 22.89 20.2 23.775C20.414 23.988 20.624 24.202 20.85 24.401C21.9534 25.3725 23.2682 26.073 24.69 26.447L25.258 26.534C25.443 26.544 25.628 26.53 25.814 26.521C26.1052 26.506 26.3896 26.4271 26.647 26.29C26.7779 26.2225 26.9057 26.1491 27.03 26.07C27.03 26.07 27.073 26.042 27.155 25.98C27.29 25.88 27.373 25.809 27.485 25.692C27.568 25.606 27.64 25.505 27.695 25.39C27.773 25.227 27.851 24.916 27.883 24.657C27.907 24.459 27.9 24.351 27.897 24.284C27.893 24.177 27.804 24.066 27.707 24.019L27.125 23.758C27.125 23.758 26.255 23.379 25.723 23.137C25.6673 23.1127 25.6077 23.0988 25.547 23.096C25.4786 23.089 25.4094 23.0967 25.3442 23.1186C25.279 23.1405 25.2193 23.1761 25.169 23.223C25.164 23.221 25.097 23.278 24.374 24.154C24.3325 24.2098 24.2753 24.2519 24.2098 24.2751C24.1443 24.2982 24.0733 24.3013 24.006 24.284C23.9408 24.2665 23.877 24.2445 23.815 24.218C23.691 24.166 23.648 24.146 23.563 24.11C22.9891 23.8595 22.4577 23.5211 21.988 23.107C21.862 22.997 21.745 22.877 21.625 22.761C21.2316 22.3842 20.8887 21.958 20.605 21.493L20.546 21.398C20.5036 21.3342 20.4694 21.2653 20.444 21.193C20.406 21.046 20.505 20.928 20.505 20.928C20.505 20.928 20.748 20.662 20.861 20.518C20.971 20.378 21.064 20.242 21.124 20.145C21.242 19.955 21.279 19.76 21.217 19.609C20.937 18.925 20.647 18.244 20.349 17.568C20.29 17.434 20.115 17.338 19.956 17.319C19.902 17.313 19.848 17.307 19.794 17.303C19.6597 17.2963 19.5251 17.2977 19.391 17.307L19.592 17.299L19.593 17.3Z" fill="white"/>
</svg>
